<?xml version="1.0" encoding="UTF-8"?>
<svg id="_レイヤー_1" data-name="レイヤー_1" xmlns="http://www.w3.org/2000/svg" version="1.1" viewBox="0 0 700 600">
  <!-- Generator: Adobe Illustrator 29.0.1, SVG Export Plug-In . SVG Version: 2.1.0 Build 192)  -->
  <defs>
    <style>
      .st0 {
        fill: #827c75;
      }
    </style>
  </defs>
  <g>
    <path class="st0" d="M8.8,542.8c-.3-.6-.6-1.4-.7-2.1-3.6-19.4,52.9-47.6,54.1-48.3,1.3-7.7,2.9-14.6,4.5-21.9,5.2-21.5,12.6-42.4,21.2-62.6,14-31.6,31.2-63.1,54.2-86.5,6-6.2,8.9-9.6,12.5-10.3,1.6-.3,3.4-.1,5.4.7,1.1.5,1.7.9,1.7,1.2.3,1.5-3.4,3.8-4.3,5.4-37.1,39.1-63.6,100-73.8,137.6,10.6-5,22.2-8.5,33.1-13,48.3-27.2,127.7-92.9,119.5-137.7-3.9-21.3-21.8-28.1-45.3-23.8-16.7,3.1-33.5,10.7-43.5,16.1-34.3,17.7-89.5,69.1-98.3,102.6,0,1.7-.7,2.8-2.3,3.1h-.5c-4.4.4-6.5-1.3-7-3.9-2.6-14.3,39.8-62.5,45.1-65.8,27.4-26.4,61.4-49.3,98.9-55.9,27.5-5.7,60.1.3,65.1,27.4,8.6,47-69.2,111.3-114.3,134.2,39.1-2.3,56,8,58.7,22.8,3.2,17.2-13.3,41-35.2,57.6-15.3,12.1-54.2,30-89,36.4-26.8,4.9-50.7,2.9-59.7-13.5ZM146.2,517.5c24.2-18,37.8-40.9,34.9-56.7-2.5-13.6-18.3-21.8-50.9-15.4-11.6,1.6-21.4,8.3-32.2,13.4-11.3,5-15.3,5.5-18.4,8-1.4,4.3-1.9,11-3.8,18.9,10-2.7,20.9-7.2,32.1-9.3,2.1-.4,4.4-.8,6.6-.9-12.7,3.9-27,7.5-39,14.3-2,4.1-2.4,11.8-2,13.8,1.8-3,2.9-4.3,3.6-4.4.8-.2-.4,3.1-.6,6.9-1.2,7.2-1.3,14-2.8,18-1.1,3.3-2.2,3.8-3.2,4h-.7c-5.1,1.1-7.3-2.6-8.3-8.2-1.3-6.9-.2-16.1-.6-21.6-5.2,2.1-11.9,7.4-13.2,7.7-11.6,7.9-31.6,23.1-31,33.4,0,.9.1,1.5.2,2.2,1.8,9.7,14.4,13,23.3,13.2,7.2.4,14.8-.5,22.9-2,31.5-5.8,67.4-23.2,83-35.1Z"/>
    <path class="st0" d="M230.9,450.9c0-.5-.2-1.1-.1-1.7-.2-12.3,5.4-32.4,9-41.7,1.3-3.3,8.8-3.8,11.3-2.2,1.1.6,1.3,1.5,1,2.5-.7,1.5-1.4,3.6-1.8,4.9-2,5.5-4.4,15.9-6.2,28,3-5,6.3-10,9-14.9,5.5-9.8,10.8-19.5,16.2-29.3,2.1-3.6,6.6-4.6,9.9-1.8,6.3,5.5,8.1,8.2,12.5,12,4,3.3,9.7,4,16.5,2.9,8.4-1.4,17.2-3.2,26.5-8.3.3,0,.8-.3,1.3-.4.2,0,.4.1.5,0,.2.3,0,.5,0,.7-1.4,1.8-3.2,3.1-5.2,4.2-4.8,2.7-16.6,7.8-23,8.8-7.9,1.3-17-1-25.4-6-2.7-1.7-5.2-3.6-7.8-5.5-1.6-1.4-3.4.8-4.6,2.7-1.6,2.3-10.9,18.5-14.7,25.1-3.3,5.4-10,18.3-13.1,22.8-1,1.2-1.5,2.1-3,2.4-2.1.4-8.1-2.3-8.6-5.2Z"/>
    <path class="st0" d="M322.4,425.2c0-8.5,2.3-16.4,6.5-23.9,1.6-3.2,8.8-3.8,11.3-2.2,1.1.6,1.3,1.5,1,2.5-.7,1.5-1.3,3-1.9,4.3-2.5,5.7-4.3,11.5-5.3,17.6-.4,2.6-.4,5.3.4,7.9,1.2,3.8,3.2,4.5,7.1,3.6,8.6-2.1,40.2-26.1,53.8-38.7.9-.8,1.7-1.8,2.6-2.5.6-.6.7-1.8,1.9-1.5-.4.6-.6,1.3-1.2,1.9-2.7,3.9-6,7-9.3,10.4-10.4,9.7-21.3,20-32.6,28.4-4.2,3-8.4,6-13.5,6.7-7.9,1.3-20.7-1.6-20.8-14.3ZM335.2,384.8c2.3-6.2,4.4-17.4,4.4-25.8.1-2.1.5-3,2.7-2.9,3.1.1,7.3,2.6,7.6,7.3.5,4.5-6,17.2-12.1,22.1-2.3,1.6-3.6,1.8-2.7-.7Z"/>
    <path class="st0" d="M388.3,435.3c-4.4-.7-6.8-4-7.7-8.8-2.1-11.2,5.1-30.5,17.5-39.9,3.3-2.5,6.2-3.9,9-4.4,4.4-.8,8.9.6,15.4,2.8,4-5.1,6.7-11.6,10.4-17.2,4.4-8.1,10.3-15.3,14-23.8,2.3-8.9,4.4-17.6,7.1-26.2,1.3-6.9,25.7-70.9,40.3-73.6,2.1-.4,4,.5,5.6,3,2.1,5.9-11.7,37.1-19.7,51-6.3,12.9-15.3,24.5-20,38.1-2.6,7.8-8.5,35-5.3,52.2,1.6,8.7,5.5,15.1,13.2,14.7,5.9-.2,21-9.5,38.2-25v.5c-3.1,6.5-19.7,25-33.9,27.6-17.6,3.2-27-7.3-29.5-21.2-1.3-6.9-.9-15.1.7-23.9-15.3,23.2-24.9,49.9-43,71-1.7,1.7-3.7,2.7-6,3.1-2.1.4-4.4.3-6.3-.2ZM418.4,392.6c1.1-1.2-4.4-6.6-8.7-4.7-9,4.4-21.2,28.5-17.3,41.9,5.7-2.2,19.5-24.3,25.9-37.2ZM494.5,249.8c-3.5.1-19.1,36.4-23.9,48.2-2.3,5.9-4.7,12.2-7,20.3,11.9-22.7,25.7-43.9,30.9-68.5Z"/>
    <path class="st0" d="M503.8,401.7c-2.9-1.2-3.8-4.2-4.3-6.8-2.8-15.1,17.2-42.9,36.2-46,4.6-.8,9.9-.6,13.4,1.1-1-2.7.4-3.6,2.2-4,2.2-.2,4.3.2,6.3,1,1.3.6,2,1.7,2.4,3,1.9,7.3,7,17.9,11.5,22.8,3.2,3.8,7.5,5.1,12.8,4.1,13.1-2.4,28.7-16.6,38-27,1.1-1.2,2.4-2.8,3.6-4.2.3-.2.4-.4.8-.3.6.2.1.7.2.8-.5,2.1-1.5,4-2.5,5.7-2.3,4-5.6,7.6-8.8,11-8.4,7.8-19.5,15.8-29,17.6-7.4,1.4-14.3,0-21.7-4.3-5.5-3.2-10.4-12-13.8-19-9.4,17.2-16,26.7-24.4,37.1-2.1,2.4-4.6,4.6-7.1,6.4-2,1.4-3.8,2.2-5.8,2.6-3.1.6-6.5,0-9.8-1.4ZM534.5,374.2c4.7-6,8.6-13,12.8-19.7-1.6-1.4-3.5-2.4-6.4-1.7-13.5,3-32.3,32.9-30.5,42.6.5,2.5,2.4,1.8,3.4,1.1,9-5.7,15.5-15.6,20.7-22.3Z"/>
    <path class="st0" d="M620.2,365.9c-3.1-16.9,11.2-54.7,18.9-70.9,9.3-19.5,25.4-47.4,39.2-61.2,3.4-3.5,6.7-5.1,9.3-5.6.8-.2,1.7-.1,2.4,0,3.3.6,5,1.5,5.4,3.6,2,10.8-21.6,50.6-34.6,68.3-7.9,10.6-15.4,21.7-22.9,32.4-.9,1.4-1.7,2.7-2.1,4.1-2.2,8.2-4.3,16.4-4.9,24.8-.7,14.4,2.7,23.9,16,21.5,13.1-2.4,25.8-14.1,35.1-24.4,1.1-1.2,2.4-2.8,3.6-4.2.3-.2.4-.4.8-.3.6.2.1.7.2.8-.5,2.1-1.5,4-2.5,5.7-2.3,4-5.6,7.6-8.8,11-8.4,7.8-18,13.8-27.5,15.6-13,2.4-24.3-5-27.3-21.1ZM654.5,301.4c8.6-12.3,17.3-24.2,23.8-37.8,3.4-7.4,6.9-14.9,9.6-22.8,2.4-7.2-.3-7.1-2.8-3.4-8,11.1-15.8,22.8-22.4,35-8.6,16-16.4,31.9-22,49l14-20Z"/>
  </g>
  <g>
    <path class="st0" d="M90.2,50c0,1.3.1,2.3.4,2.9.3.6.7,1,1.5,1.2.7.2,1.9.3,3.5.3h6.7c2.8,0,5.1-.9,6.9-2.6,1.8-1.7,3-4,3.5-7,0-.1.1-.2.4-.2.3,0,.4.1.4.2-.4,4-.6,7.3-.6,9.9s0,.6-.2.8c-.1.2-.4.2-.8.2h-32.5c0,0-.1-.1-.1-.4s0-.4.1-.4c1.7,0,3-.1,3.8-.4.8-.2,1.3-.7,1.6-1.4.3-.7.4-1.7.4-3.1V17.8c0-1.4-.1-2.4-.4-3.1-.3-.7-.8-1.1-1.6-1.4-.8-.3-2.1-.4-3.8-.4s-.1-.1-.1-.4,0-.4.1-.4h3.5c2,.2,3.6.2,4.8.2s3,0,5-.1h3.4c0,0,.1,0,.1.4s0,.4-.1.4c-1.7,0-2.9.1-3.7.4-.8.3-1.4.7-1.6,1.4-.3.7-.4,1.7-.4,3.1v32.1Z"/>
    <path class="st0" d="M148.6,51.8c.2,0,.3.1.4.4,0,.2,0,.4-.1.5l-8.5,4h-.3c-.5,0-.9-.5-1.3-1.6-.4-1.1-.6-2.6-.6-4.3-3.5,3.9-7.1,5.9-10.9,5.9s-4.2-.7-5.6-2.2c-1.4-1.5-2-3.6-2-6.4v-10.7c0-1.8-.2-3.1-.5-3.9-.3-.8-.8-1.2-1.6-1.2s-1.3.2-2.3.6h-.1c-.1,0-.2-.1-.3-.4,0-.2,0-.4.1-.4l8-3.7h.3c.1,0,.3,0,.5.1.2.1.3.3.3.4v16.5c0,5.4,2,8,5.9,8s2.8-.4,4.3-1c1.4-.7,2.8-1.7,4-2.9v-12.2c0-1.8-.2-3.1-.5-3.9-.3-.8-.9-1.2-1.6-1.2s-1.3.2-2.3.6h-.1c-.1,0-.2-.1-.3-.4,0-.2,0-.4.1-.4l8.1-3.7h.3c.1,0,.3,0,.5.1.2.1.2.3.2.4v19.4c0,1.6.2,2.7.6,3.4.4.7,1,1.1,1.8,1.1s1.9-.3,3.6-.9h.1Z"/>
    <path class="st0" d="M179.2,55.5c0,.3,0,.4-.1.4h-2.4c-.5-.1-1.3-.1-2.2-.1h-4.6c-.7.1-1.7.1-2.9.1s-.2-.1-.2-.4,0-.4.2-.4c.8,0,1.4,0,1.7-.2.3-.1.5-.3.5-.7s-.3-1-.8-1.9l-5.2-7.8-3.9,5.6c-1,1.4-1.5,2.5-1.5,3.2,0,1.2,1.3,1.8,3.9,1.8s.2.1.2.4,0,.4-.2.4c-1.3,0-2.2,0-2.8,0h-4.2c0,0-2.6,0-2.6,0-.5,0-1.2,0-2.3,0s-.1-.1-.1-.4,0-.4.1-.4c1.3,0,2.7-.5,4.1-1.4,1.4-.9,2.8-2.3,4-4l4.5-6.2-5.8-8.8c-1.1-1.7-2.3-2.9-3.4-3.7-1.2-.8-2.2-1.2-3.2-1.2s-.1-.1-.1-.4,0-.4.1-.4c1,0,1.7,0,2.2,0h2.2c0,0,4.6,0,4.6,0,.7,0,1.6,0,2.8,0s.1.1.1.4,0,.4-.1.4c-.7,0-1.3,0-1.6.2-.4.1-.5.3-.5.7s.3,1,.8,1.9l4.7,7.1,3.3-4.9c1-1.4,1.5-2.5,1.5-3.3,0-1.1-1.3-1.7-3.9-1.7s-.1-.1-.1-.4,0-.4.1-.4c1.3,0,2.2,0,2.9,0h4.2c0,0,2.6,0,2.6,0,.5,0,1.2,0,2.3,0s.1.1.1.4,0,.4-.1.4c-1.3,0-2.7.5-4.1,1.4-1.4.9-2.8,2.3-4.1,4l-4.1,5.5,6.3,9.4c1.2,1.7,2.4,3,3.6,3.8,1.2.8,2.3,1.2,3.3,1.2s.1.1.1.4Z"/>
    <path class="st0" d="M214,51.8c.2,0,.3.1.4.4,0,.2,0,.4-.1.5l-8.5,4h-.3c-.5,0-.9-.5-1.3-1.6-.4-1.1-.6-2.6-.6-4.3-3.5,3.9-7.1,5.9-10.9,5.9s-4.2-.7-5.6-2.2c-1.4-1.5-2-3.6-2-6.4v-10.7c0-1.8-.2-3.1-.5-3.9-.3-.8-.8-1.2-1.6-1.2s-1.3.2-2.3.6h-.1c-.1,0-.2-.1-.3-.4,0-.2,0-.4.1-.4l8-3.7h.3c.1,0,.3,0,.5.1.2.1.3.3.3.4v16.5c0,5.4,2,8,5.9,8s2.8-.4,4.3-1c1.4-.7,2.8-1.7,4-2.9v-12.2c0-1.8-.2-3.1-.5-3.9-.3-.8-.9-1.2-1.6-1.2s-1.3.2-2.3.6h-.1c-.1,0-.2-.1-.3-.4,0-.2,0-.4.1-.4l8.1-3.7h.3c.1,0,.3,0,.5.1.2.1.2.3.2.4v19.4c0,1.6.2,2.7.6,3.4.4.7,1,1.1,1.8,1.1s1.9-.3,3.6-.9h.1Z"/>
    <path class="st0" d="M236.9,29.2c1,.6,1.4,1.3,1.4,2.2s-.2,1.2-.7,1.6c-.4.4-1,.7-1.8.7s-.9,0-1.2-.3c-.3-.2-.7-.5-1.1-.8-.5-.4-.9-.7-1.2-.8-.3-.2-.8-.3-1.3-.3s-1.2.2-1.9.7c-.6.5-1.6,1.5-3,3.1v15.1c0,1.4.2,2.4.5,3,.3.7,1,1.1,1.9,1.4.9.3,2.4.4,4.3.4s.2.1.2.4,0,.4-.2.4c-1.5,0-2.8,0-3.7,0h-5.2c0,0-3.8,0-3.8,0-.7,0-1.5,0-2.7,0s-.2-.1-.2-.4,0-.4.2-.4c1.2,0,2.1-.1,2.7-.4.6-.3,1-.7,1.2-1.4.2-.7.3-1.7.3-3v-13.7c0-1.5-.2-2.7-.6-3.4-.4-.7-1-1-1.8-1s-1.9.3-3.7,1h0c-.2,0-.3-.1-.4-.3,0-.2,0-.4.1-.5l8.4-4.1h.4c.5,0,.9.5,1.4,1.5.4,1.1.7,2.4.7,4.1,1.9-2.2,3.4-3.7,4.5-4.5,1.1-.8,2.2-1.2,3.2-1.2s2,.3,3,.9Z"/>
    <path class="st0" d="M270.6,29.3c0,.3,0,.4-.2.4-1.3,0-2.3.4-3.2,1.3-.9.9-1.7,2.4-2.5,4.4l-8.4,22.4c-1.7,4.5-3.3,8.1-4.9,10.6-1.5,2.5-3.1,4.4-4.7,5.5-1.6,1.1-3.4,1.6-5.5,1.6s-2-.2-2.7-.7c-.7-.5-1-1.2-1-2.1s.2-1.3.7-1.7c.5-.4,1.1-.6,1.7-.6s1.1,0,1.5.2c.4.2.8.4,1.2.7,0,0,.4.2.8.4.4.2,1,.4,1.6.4,1.1,0,2.2-.5,3.1-1.4,1-1,2-2.5,3.2-4.8,1.1-2.2,2.5-5.3,4-9.3l-10.8-21.8c-1.1-2.1-1.9-3.4-2.5-4-.6-.6-1.3-.9-2.2-.9s-.1-.1-.1-.4,0-.4.1-.4c1.1,0,1.9,0,2.5,0h2.5c0,0,4.5,0,4.5,0,.7,0,1.6,0,2.8,0s.1.1.1.4,0,.4-.1.4c-1.3,0-2.3.1-3,.4-.7.2-1,.6-1,1.2s.1.6.4,1.2l9,18.6,5.4-15.5c.4-1.1.6-2,.6-2.7,0-1.1-.4-1.9-1.2-2.4-.8-.5-2.1-.7-4-.7s-.1-.1-.1-.4,0-.4.1-.4c1.3,0,2.2,0,2.9,0h4.2c0,0,2.5,0,2.5,0,.5,0,1.3,0,2.3,0s.2.1.2.4Z"/>
    <path class="st0" d="M319.4,35c2.3,2.2,3.4,4.8,3.4,8s-.6,4.7-1.9,6.7c-1.3,2-3,3.6-5.1,4.7-2.2,1.1-4.6,1.7-7.3,1.7s-3.1,0-4.9-.2c-.7,0-1.4,0-2.3-.1-.9,0-1.9,0-3,0h-4.8c-.9.1-2.1.1-3.6.1s-.1-.1-.1-.4,0-.4.1-.4c1.7,0,2.9-.1,3.7-.4.8-.3,1.4-.7,1.7-1.4.3-.7.5-1.7.5-3.1V17.8c0-1.4-.1-2.4-.4-3.1-.3-.7-.8-1.1-1.6-1.4-.8-.3-2-.4-3.7-.4s-.2-.1-.2-.4,0-.4.2-.4h3.4c2,.2,3.6.2,4.8.2s1.6,0,2.3,0c.7,0,1.3,0,1.9-.1,1.4-.1,2.8-.2,4.1-.2,4,0,7,.8,9,2.5s3,3.9,3,6.7-.7,4.2-2.2,6c-1.4,1.8-3.5,3.1-6,4.1,3.7.3,6.7,1.6,9,3.7ZM302.5,13.4c-.6.2-1,.7-1.3,1.4-.3.7-.4,1.8-.4,3.2v13.3h3.2c3.2,0,5.6-.8,7.2-2.6,1.6-1.8,2.3-4.1,2.3-7s-.7-4.7-2-6.3c-1.4-1.6-3.5-2.3-6.3-2.3s-2,.1-2.6.3ZM314.9,52.2c1.6-1.8,2.4-4.2,2.4-7.5s-1-6.4-3-8.6c-2-2.2-4.8-3.3-8.4-3.3-1.3,0-3,0-5,.1v17.2c0,1.2.2,2.1.5,2.7.3.7,1,1.1,1.9,1.4.9.3,2.3.5,4.1.5,3.4,0,5.9-.9,7.5-2.6Z"/>
    <path class="st0" d="M348.9,29.2c1,.6,1.4,1.3,1.4,2.2s-.2,1.2-.7,1.6c-.4.4-1,.7-1.8.7s-.9,0-1.2-.3c-.3-.2-.7-.5-1.1-.8-.5-.4-.9-.7-1.2-.8-.3-.2-.8-.3-1.3-.3s-1.2.2-1.9.7c-.6.5-1.6,1.5-3,3.1v15.1c0,1.4.2,2.4.5,3,.3.7,1,1.1,1.9,1.4.9.3,2.4.4,4.3.4s.2.1.2.4,0,.4-.2.4c-1.5,0-2.8,0-3.7,0h-5.2c0,0-3.8,0-3.8,0-.7,0-1.5,0-2.7,0s-.2-.1-.2-.4,0-.4.2-.4c1.2,0,2.1-.1,2.7-.4.6-.3,1-.7,1.2-1.4.2-.7.3-1.7.3-3v-13.7c0-1.5-.2-2.7-.6-3.4-.4-.7-1-1-1.8-1s-1.9.3-3.7,1h0c-.2,0-.3-.1-.4-.3,0-.2,0-.4.1-.5l8.4-4.1h.4c.5,0,.9.5,1.4,1.5.4,1.1.7,2.4.7,4.1,1.9-2.2,3.4-3.7,4.5-4.5,1.1-.8,2.2-1.2,3.2-1.2s2,.3,3,.9Z"/>
    <path class="st0" d="M355.4,55.5c0-.3,0-.4.2-.4,1.7,0,2.9-.3,3.4-.9.6-.6.8-1.9.8-3.9v-13c0-1.6-.2-2.8-.5-3.6-.3-.7-.9-1.1-1.8-1.1s-1.8.3-3.1,1h0c-.2,0-.3-.1-.4-.4,0-.2,0-.4.1-.5l9.3-4.3h.3c.1,0,.3,0,.5.1.2.1.2.3.2.4,0,.3,0,1.3,0,2.8,0,1.5,0,3.4,0,5.5v13.1c0,1.4.1,2.4.3,3,.2.7.6,1.1,1.2,1.4.6.3,1.5.4,2.7.4s.2.1.2.4,0,.4-.2.4c-1.2,0-2.1,0-2.7,0h-3.8c0,0-3.9,0-3.9,0-.7,0-1.5,0-2.6,0s-.2-.1-.2-.4ZM359.2,19.4c-.6-.6-.9-1.4-.9-2.4s.3-1.7.9-2.2c.6-.6,1.4-.8,2.4-.8s1.8.3,2.3.8c.6.6.8,1.3.8,2.2s-.3,1.8-.8,2.4c-.6.6-1.3.8-2.3.8s-1.8-.3-2.4-.8Z"/>
    <path class="st0" d="M406.5,51.9c.1,0,.3.1.3.4,0,.2,0,.4,0,.4l-8,3.9c-.3,0-.4.1-.5.1-.6,0-1.1-.5-1.5-1.5s-.7-2.4-.7-4.1c-1.7,1.7-3.5,3.1-5.3,4.2-1.9,1.1-3.9,1.6-6.2,1.6s-3.8-.5-5.5-1.6c-1.7-1.1-3-2.7-4-4.7-1-2.1-1.5-4.4-1.5-7.1s.8-6.2,2.5-8.5c1.6-2.3,3.7-4,6.2-5.2,2.5-1.1,4.9-1.7,7.4-1.7s4.5.5,6.4,1.6v-15.4c0-1.7-.2-2.9-.5-3.6-.3-.7-.9-1.1-1.8-1.1s-1.6.3-3.1.9h-.1c-.2,0-.3-.1-.4-.3,0-.2,0-.4.1-.5l9.1-4.4c0,0,.2,0,.3,0s.3,0,.5.2c.2.1.2.3.2.4v42.4c0,1.7.2,2.9.6,3.6.4.7,1,1.1,1.9,1.1s2.3-.3,3.5-1h.1ZM391.9,53c1.4-.8,2.7-1.9,4.1-3.3v-15.7c-1-1.5-2.2-2.6-3.5-3.4-1.3-.8-2.9-1.2-4.7-1.2-2.8,0-5.1,1-6.8,3-1.7,2-2.5,5-2.5,8.8s.8,7,2.5,9.3c1.7,2.4,3.8,3.5,6.4,3.5s3.1-.4,4.4-1.2Z"/>
    <path class="st0" d="M436,52.1c.2,0,.3.1.3.3,0,.2,0,.4-.2.5l-7.2,3.4c-.2,0-.4.1-.6.1-.6,0-1.2-.4-1.6-1.2-.5-.8-.8-1.9-1-3.3l-3.5,2.3c-1.1.8-2.1,1.4-3,1.7s-1.9.5-2.9.5c-1.8,0-3.1-.5-4.1-1.4-1-.9-1.5-2.1-1.5-3.5s.6-2.7,1.8-3.7c1.2-1,3.1-2,5.7-3l7.5-2.7v-4.6c0-2.8-.4-4.8-1.1-6.1-.7-1.3-1.8-1.9-3.2-1.9s-2.7.5-3.5,1.6c-.8,1.1-1.3,2.3-1.5,3.6-.3,2.1-1.2,3.1-2.9,3.1s-1.5-.2-1.9-.6-.6-.9-.6-1.5c0-1.2.7-2.3,2.2-3.5,1.5-1.2,3.2-2.1,5.3-2.9,2.1-.7,3.9-1.1,5.5-1.1s3.4.6,4.4,1.9c1,1.2,1.6,3,1.6,5.4v12.9c0,1.6.2,2.8.7,3.5.4.7,1.1,1.1,2.1,1.1s1.9-.3,3.2-.8h.1ZM425.6,50.9v-7.8l-5.9,2.4c-1.3.5-2.2,1-2.9,1.7-.7.7-1,1.5-1,2.6s.4,2,1.1,2.8c.7.7,1.6,1.1,2.8,1.1s2-.4,3.2-1l2.7-1.7Z"/>
    <path class="st0" d="M438.8,55.5c0-.3,0-.4.2-.4,1.7,0,2.9-.3,3.4-.9.6-.6.8-1.9.8-3.9V14.2c0-1.7-.2-2.9-.5-3.6-.3-.7-.9-1.1-1.6-1.1s-1.8.3-3.2,1h0c-.2,0-.3-.1-.5-.4-.1-.3,0-.4.1-.5l9.2-4.3h.3c.1,0,.3,0,.5.1s.3.3.3.4v44.5c0,2,.3,3.3.8,3.9.5.6,1.7.9,3.5.9s.2.1.2.4,0,.4-.2.4c-1.1,0-2,0-2.7,0h-3.9c0,0-3.9,0-3.9,0-.7,0-1.5,0-2.7,0s-.2-.1-.2-.4Z"/>
    <path class="st0" d="M482.7,24.8c.9,1.4,2,2.5,3.2,3.4,1.3.9,3,2.1,5.3,3.4,2.4,1.4,4.2,2.7,5.6,3.7,1.4,1,2.5,2.3,3.5,3.8,1,1.5,1.4,3.4,1.4,5.5s-.6,4.3-1.7,6.2c-1.1,1.8-2.8,3.3-5,4.3-2.2,1-4.8,1.6-7.8,1.6s-7.1-.8-10.1-2.5c-.2-.1-.4-.3-.5-.5,0-.2-.2-.5-.2-.8l-.8-9.8c0-.2,0-.3.3-.4.3,0,.4,0,.5.2.9,3.5,2.4,6.4,4.4,8.9,2,2.5,4.7,3.7,8,3.7s4.2-.6,5.7-1.8c1.5-1.2,2.3-3.2,2.3-5.9s-.5-3.9-1.4-5.4c-.9-1.5-2.1-2.8-3.4-3.8-1.3-1.1-3.1-2.3-5.4-3.6-2.3-1.4-4.1-2.6-5.3-3.6-1.3-1-2.3-2.2-3.2-3.6-.9-1.5-1.3-3.2-1.3-5.2s.6-4.4,1.9-6.1c1.3-1.7,2.9-2.9,5-3.7,2.1-.8,4.2-1.2,6.5-1.2s5.7.5,8.3,1.6c.7.3,1,.7,1,1.3l.4,8.4c0,.2-.1.3-.4.4-.3,0-.4,0-.5-.2-.5-2.5-1.5-4.8-3.2-7-1.6-2.2-4-3.3-7.1-3.3s-4.4.7-5.6,2.2c-1.3,1.4-1.9,3.3-1.9,5.5s.4,3.3,1.3,4.7Z"/>
    <path class="st0" d="M534.6,52.1c.2,0,.3.1.3.3,0,.2,0,.4-.2.5l-7.2,3.4c-.2,0-.4.1-.6.1-.6,0-1.2-.4-1.6-1.2-.5-.8-.8-1.9-1-3.3l-3.5,2.3c-1.1.8-2.1,1.4-3,1.7s-1.9.5-2.9.5c-1.8,0-3.1-.5-4.1-1.4-1-.9-1.5-2.1-1.5-3.5s.6-2.7,1.8-3.7c1.2-1,3.1-2,5.7-3l7.5-2.7v-4.6c0-2.8-.4-4.8-1.1-6.1-.7-1.3-1.8-1.9-3.2-1.9s-2.7.5-3.5,1.6c-.8,1.1-1.3,2.3-1.5,3.6-.3,2.1-1.2,3.1-2.9,3.1s-1.5-.2-1.9-.6-.6-.9-.6-1.5c0-1.2.7-2.3,2.2-3.5,1.5-1.2,3.2-2.1,5.3-2.9,2.1-.7,3.9-1.1,5.5-1.1s3.4.6,4.4,1.9c1,1.2,1.6,3,1.6,5.4v12.9c0,1.6.2,2.8.7,3.5.4.7,1.1,1.1,2.1,1.1s1.9-.3,3.2-.8h.1ZM524.2,50.9v-7.8l-5.9,2.4c-1.3.5-2.2,1-2.9,1.7-.7.7-1,1.5-1,2.6s.4,2,1.1,2.8c.7.7,1.6,1.1,2.8,1.1s2-.4,3.2-1l2.7-1.7Z"/>
    <path class="st0" d="M537.4,55.5c0-.3,0-.4.2-.4,1.7,0,2.9-.3,3.4-.9.6-.6.8-1.9.8-3.9V14.2c0-1.7-.2-2.9-.5-3.6-.3-.7-.9-1.1-1.6-1.1s-1.8.3-3.2,1h0c-.2,0-.3-.1-.5-.4-.1-.3,0-.4.1-.5l9.2-4.3h.3c.1,0,.3,0,.5.1s.3.3.3.4v44.5c0,2,.3,3.3.8,3.9.5.6,1.7.9,3.5.9s.2.1.2.4,0,.4-.2.4c-1.1,0-2,0-2.7,0h-3.9c0,0-3.9,0-3.9,0-.7,0-1.5,0-2.7,0s-.2-.1-.2-.4Z"/>
    <path class="st0" d="M562.1,54.8c-2.1-1.3-3.7-3.1-4.8-5.4-1.1-2.3-1.7-4.7-1.7-7.4s.7-5.6,2.2-7.7c1.5-2.1,3.4-3.7,5.7-4.8,2.3-1,4.7-1.6,7.1-1.6s5.2.7,7.2,2c2.1,1.4,3.7,3.1,4.8,5.4,1.1,2.2,1.7,4.6,1.7,7s-.7,5.4-2,7.6c-1.4,2.2-3.2,3.9-5.5,5-2.3,1.2-4.8,1.8-7.5,1.8s-5.2-.7-7.2-2ZM577,52.8c1.3-1.8,2-4.6,2-8.3s-.5-5.6-1.4-7.8c-.9-2.3-2.2-4.1-3.8-5.3-1.6-1.3-3.5-1.9-5.5-1.9s-4.2.9-5.5,2.7c-1.3,1.8-2,4.4-2,7.8s.5,5.5,1.4,7.9c.9,2.4,2.2,4.3,3.7,5.7,1.6,1.4,3.4,2.1,5.5,2.1s4.3-.9,5.6-2.7Z"/>
    <path class="st0" d="M621.8,55.5c0,.3,0,.4-.2.4-1.2,0-2.1,0-2.7,0h-3.8c0,0-3.8,0-3.8,0-.7,0-1.5,0-2.7,0s-.2-.1-.2-.4,0-.4.2-.4c1.2,0,2.1-.1,2.7-.4.6-.3,1-.7,1.2-1.4.2-.7.3-1.7.3-3v-11.1c0-2.7-.5-4.7-1.5-6-1-1.3-2.6-1.9-4.8-1.9s-2.7.4-4.2,1c-1.4.7-2.7,1.7-3.9,2.9v15.1c0,1.4.1,2.4.3,3,.2.7.6,1.1,1.2,1.4.6.3,1.5.4,2.7.4s.2.1.2.4,0,.4-.2.4c-1.2,0-2.1,0-2.7,0h-3.8c0,0-3.8,0-3.8,0-.7,0-1.5,0-2.7,0s-.2-.1-.2-.4,0-.4.2-.4c1.2,0,2.1-.1,2.7-.4.6-.3,1-.7,1.2-1.4.2-.7.3-1.7.3-3v-13.7c0-1.5-.2-2.7-.6-3.4-.4-.7-1-1-1.8-1s-1.9.3-3.7,1h0c-.2,0-.3-.1-.4-.3,0-.2,0-.4.1-.5l8.4-4.1h.4c.5,0,.9.5,1.4,1.5.4,1.1.7,2.4.7,4.2,3.4-4,7-6,10.7-6s4.6.7,6,2.2c1.4,1.5,2.1,3.6,2.1,6.4v13.6c0,1.4.1,2.4.3,3,.2.7.6,1.1,1.2,1.4.6.3,1.5.4,2.7.4s.2.1.2.4Z"/>
  </g>
</svg>