<?xml version="1.0" encoding="UTF-8"?>
<svg id="_レイヤー_1" xmlns="http://www.w3.org/2000/svg" version="1.1" viewBox="0 0 700 370">
  <!-- Generator: Adobe Illustrator 29.0.1, SVG Export Plug-In . SVG Version: 2.1.0 Build 192)  -->
  <defs>
    <style>
      .st0 {
        fill: #f9f8f8;
      }
    </style>
  </defs>
  <path class="st0" d="M7.1,329.5c-.3-.6-.6-1.4-.7-2.1-3.6-19.4,52.9-47.6,54.1-48.3,1.3-7.7,2.9-14.6,4.5-21.9,5.2-21.5,12.6-42.4,21.2-62.6,14-31.6,31.2-63.1,54.2-86.5,6-6.2,8.9-9.6,12.5-10.3,1.6-.3,3.4-.1,5.4.7,1.1.5,1.7.9,1.7,1.2.3,1.5-3.4,3.8-4.3,5.4-37.1,39.1-63.6,100-73.8,137.6,10.6-5,22.2-8.5,33.1-13,48.3-27.2,127.7-92.9,119.5-137.7-3.9-21.3-21.8-28.1-45.3-23.8-16.7,3.1-33.5,10.7-43.5,16.1-34.3,17.7-89.5,69.1-98.3,102.6,0,1.7-.7,2.8-2.3,3.1h-.5c-4.4.4-6.5-1.3-7-3.9-2.6-14.3,39.8-62.5,45.1-65.8,27.4-26.4,61.4-49.3,98.9-55.9,27.5-5.7,60.1.3,65.1,27.4,8.6,47-69.2,111.3-114.3,134.2,39.1-2.3,56,8,58.7,22.8,3.2,17.2-13.3,41-35.2,57.6-15.3,12.1-54.2,30-89,36.4-26.8,4.9-50.7,2.9-59.7-13.5ZM144.5,304.3c24.2-18,37.8-40.9,34.9-56.7-2.5-13.6-18.3-21.8-50.9-15.4-11.6,1.6-21.4,8.3-32.2,13.4-11.3,5-15.3,5.5-18.4,8-1.4,4.3-1.9,11-3.8,18.9,10-2.7,20.9-7.2,32.1-9.3,2.1-.4,4.4-.8,6.6-.9-12.7,3.9-27,7.5-39,14.3-2,4.1-2.4,11.8-2,13.8,1.8-3,2.9-4.3,3.6-4.4.8-.2-.4,3.1-.6,6.9-1.2,7.2-1.3,14-2.8,18-1.1,3.3-2.2,3.8-3.2,4h-.7c-5.1,1.1-7.3-2.6-8.3-8.2-1.3-6.9-.2-16.1-.6-21.6-5.2,2.1-11.9,7.4-13.2,7.7-11.6,7.9-31.6,23.1-31,33.4,0,.9.1,1.5.2,2.2,1.8,9.7,14.4,13,23.3,13.2,7.2.4,14.8-.5,22.9-2,31.5-5.8,67.4-23.2,83-35.1Z"/>
  <path class="st0" d="M229.2,237.6c0-.5-.2-1.1-.1-1.7-.2-12.3,5.4-32.4,9-41.7,1.3-3.3,8.8-3.8,11.3-2.2,1.1.6,1.3,1.5,1,2.5-.7,1.5-1.4,3.6-1.8,4.9-2,5.5-4.4,15.9-6.2,28,3-5,6.3-10,9-14.9,5.5-9.8,10.8-19.5,16.2-29.3,2.1-3.6,6.6-4.6,9.9-1.8,6.3,5.5,8.1,8.2,12.5,12,4,3.3,9.7,4,16.5,2.9,8.4-1.4,17.2-3.2,26.5-8.3.3,0,.8-.3,1.3-.4.2,0,.4.1.5,0,.2.3,0,.5,0,.7-1.4,1.8-3.2,3.1-5.2,4.2-4.8,2.7-16.6,7.8-23,8.8-7.9,1.3-17-1-25.4-6-2.7-1.7-5.2-3.6-7.8-5.5-1.6-1.4-3.4.8-4.6,2.7-1.6,2.3-10.9,18.5-14.7,25.1-3.3,5.4-10,18.3-13.1,22.8-1,1.2-1.5,2.1-3,2.4-2.1.4-8.1-2.3-8.6-5.2Z"/>
  <path class="st0" d="M320.7,212c0-8.5,2.3-16.4,6.5-23.9,1.6-3.2,8.8-3.8,11.3-2.2,1.1.6,1.3,1.5,1,2.5-.7,1.5-1.3,3-1.9,4.3-2.5,5.7-4.3,11.5-5.3,17.6-.4,2.6-.4,5.3.4,7.9,1.2,3.8,3.2,4.5,7.1,3.6,8.6-2.1,40.2-26.1,53.8-38.7.9-.8,1.7-1.8,2.6-2.5.6-.6.7-1.8,1.9-1.5-.4.6-.6,1.3-1.2,1.9-2.7,3.9-6,7-9.3,10.4-10.4,9.7-21.3,20-32.6,28.4-4.2,3-8.4,6-13.5,6.7-7.9,1.3-20.7-1.6-20.8-14.3ZM333.5,171.6c2.3-6.2,4.4-17.4,4.4-25.8.1-2.1.5-3,2.7-2.9,3.1.1,7.3,2.6,7.6,7.3.5,4.5-6,17.2-12.1,22.1-2.3,1.6-3.6,1.8-2.7-.7Z"/>
  <path class="st0" d="M386.5,222.1c-4.4-.7-6.8-4-7.7-8.8-2.1-11.2,5.1-30.5,17.5-39.9,3.3-2.5,6.2-3.9,9-4.4,4.4-.8,8.9.6,15.4,2.8,4-5.1,6.7-11.6,10.4-17.2,4.4-8.1,10.3-15.3,14-23.8,2.3-8.9,4.4-17.6,7.1-26.2,1.3-6.9,25.7-70.9,40.3-73.6,2.1-.4,4,.5,5.6,3,2.1,5.9-11.7,37.1-19.7,51-6.3,12.9-15.3,24.5-20,38.1-2.6,7.8-8.5,35-5.3,52.2,1.6,8.7,5.5,15.1,13.2,14.7,5.9-.2,21-9.5,38.2-25v.5c-3.1,6.5-19.7,25-33.9,27.6-17.6,3.2-27-7.3-29.5-21.2-1.3-6.9-.9-15.1.7-23.9-15.3,23.2-24.9,49.9-43,71-1.7,1.7-3.7,2.7-6,3.1-2.1.4-4.4.3-6.3-.2ZM416.7,179.4c1.1-1.2-4.4-6.6-8.7-4.7-9,4.4-21.2,28.5-17.3,41.9,5.7-2.2,19.5-24.3,25.9-37.2ZM492.8,36.6c-3.5.1-19.1,36.4-23.9,48.2-2.3,5.9-4.7,12.2-7,20.3,11.9-22.7,25.7-43.9,30.9-68.5Z"/>
  <path class="st0" d="M502.1,188.5c-2.9-1.2-3.8-4.2-4.3-6.8-2.8-15.1,17.2-42.9,36.2-46,4.6-.8,9.9-.6,13.4,1.1-1-2.7.4-3.6,2.2-4,2.2-.2,4.3.2,6.3,1,1.3.6,2,1.7,2.4,3,1.9,7.3,7,17.9,11.5,22.8,3.2,3.8,7.5,5.1,12.8,4.1,13.1-2.4,28.7-16.6,38-27,1.1-1.2,2.4-2.8,3.6-4.2.3-.2.4-.4.8-.3.6.2.1.7.2.8-.5,2.1-1.5,4-2.5,5.7-2.3,4-5.6,7.6-8.8,11-8.4,7.8-19.5,15.8-29,17.6-7.4,1.4-14.3,0-21.7-4.3-5.5-3.2-10.4-12-13.8-19-9.4,17.2-16,26.7-24.4,37.1-2.1,2.4-4.6,4.6-7.1,6.4-2,1.4-3.8,2.2-5.8,2.6-3.1.6-6.5,0-9.8-1.4ZM532.8,160.9c4.7-6,8.6-13,12.8-19.7-1.6-1.4-3.5-2.4-6.4-1.7-13.5,3-32.3,32.9-30.5,42.6.5,2.5,2.4,1.8,3.4,1.1,9-5.7,15.5-15.6,20.7-22.3Z"/>
  <path class="st0" d="M618.5,152.6c-3.1-16.9,11.2-54.7,18.9-70.9,9.3-19.5,25.4-47.4,39.2-61.2,3.4-3.5,6.7-5.1,9.3-5.6.8-.2,1.7-.1,2.4,0,3.3.6,5,1.5,5.4,3.6,2,10.8-21.6,50.6-34.6,68.3-7.9,10.6-15.4,21.7-22.9,32.4-.9,1.4-1.7,2.7-2.1,4.1-2.2,8.2-4.3,16.4-4.9,24.8-.7,14.4,2.7,23.9,16,21.5,13.1-2.4,25.8-14.1,35.1-24.4,1.1-1.2,2.4-2.8,3.6-4.2.3-.2.4-.4.8-.3.6.2.1.7.2.8-.5,2.1-1.5,4-2.5,5.7-2.3,4-5.6,7.6-8.8,11-8.4,7.8-18,13.8-27.5,15.6-13,2.4-24.3-5-27.3-21.1ZM652.8,88.1c8.6-12.3,17.3-24.2,23.8-37.8,3.4-7.4,6.9-14.9,9.6-22.8,2.4-7.2-.3-7.1-2.8-3.4-8,11.1-15.8,22.8-22.4,35-8.6,16-16.4,31.9-22,49l14-20Z"/>
</svg>